<svg width="18" height="24" viewBox="0 0 18 24" fill="none" xmlns="http://www.w3.org/2000/svg">
  <path fill-rule="evenodd" clip-rule="evenodd"
    d="M7.99828 16.5546C8.04336 16.4095 8.23423 16.3071 8.38004 16.3497L9.57083 16.6978C9.74096 16.7476 9.82492 16.904 9.77234 17.0733C9.74229 17.17 9.68707 17.2197 9.62346 17.2539C9.54391 17.2966 9.4719 17.3151 9.37471 17.2867L8.20818 16.9457C8.03808 16.8959 7.94574 16.7239 7.99828 16.5546ZM5.62823 15.8696C5.69578 15.6866 5.85667 15.6002 6.03044 15.6537L7.23074 16.0366C7.39575 16.0738 7.49183 16.2528 7.44038 16.4272C7.41829 16.5019 7.37142 16.569 7.29096 16.6121C7.22662 16.6467 7.14479 16.6487 7.05425 16.6344L5.83787 16.2602C5.68019 16.198 5.59285 16.0353 5.62823 15.8696ZM3.27202 15.1722C3.31609 14.9809 3.47884 14.8935 3.66263 14.9626L4.45386 15.1922L4.87944 15.3157C5.03824 15.3772 5.13432 15.5562 5.08908 15.7062C5.0752 15.7975 5.00255 15.8574 4.93742 15.8924C4.87232 15.9273 4.78223 15.9548 4.69848 15.9159L3.87274 15.6763L3.48166 15.5628C3.32287 15.5013 3.22679 15.3223 3.27202 15.1722ZM15.2681 5.28916L14.9116 6.47942L10.612 20.8328C10.5386 21.0763 10.3508 21.2588 10.1449 21.3693C9.93892 21.4798 9.68307 21.5355 9.43958 21.462L6.58224 20.5869C6.42028 20.5514 6.32671 20.377 6.37808 20.2066C6.4588 19.9387 6.43474 19.6658 6.30715 19.4281C6.17955 19.1904 5.96543 19.0195 5.69757 18.9388C5.45407 18.8653 5.16539 18.8978 4.92775 19.0253C4.69012 19.1529 4.51937 19.367 4.44602 19.6105C4.41666 19.7079 4.36177 19.7578 4.28256 19.8003C4.21921 19.8343 4.14733 19.8525 4.04996 19.8231L3.39251 19.6248L3.04039 20.7937C3.00984 20.8509 3.02685 20.8826 3.03537 20.8985C3.04387 20.9143 3.06088 20.946 3.12545 20.9522L11.1046 23.3854C11.1777 23.4075 11.2569 23.365 11.2947 23.2834L16.5463 5.80751C16.5695 5.77467 16.544 5.72711 16.527 5.69542C16.527 5.69542 16.5099 5.66373 16.4527 5.63318L16.0631 5.52007L15.2681 5.28916ZM8.82662 6.78336L8.491 7.86549C8.4183 8.10951 8.20674 8.28457 7.9414 8.28345L6.8168 8.31311L7.74515 8.94228C7.95106 9.09826 8.05612 9.36988 7.96763 9.62237L7.6478 10.696L8.54266 10.0107C8.57428 9.99374 8.5901 9.98525 8.63751 9.9598C8.82725 9.85796 9.06096 9.87601 9.24981 10.0001L10.0253 10.5504L10.1709 10.6537L10.1108 10.4791L9.8079 9.59809C9.71137 9.34238 9.79137 9.07396 10.0029 8.89892L10.8905 8.23802L9.77317 8.24325C9.51634 8.25809 9.27029 8.10317 9.19811 7.85493L8.82662 6.78336ZM8.80623 6.13829C9.06305 6.12345 9.30185 6.30274 9.38981 6.54257L9.77841 7.64592L10.9274 7.62373C11.1842 7.60888 11.4144 7.7723 11.5109 8.02797C11.5831 8.27621 11.5031 8.54467 11.2988 8.69529L10.3882 9.38908L10.6221 10.0532L10.7768 10.4925C10.8489 10.7408 10.769 11.0092 10.5647 11.1598C10.5331 11.1768 10.5015 11.1938 10.4699 11.2107C10.2801 11.3126 10.055 11.3104 9.85757 11.1704L9.54412 10.9512L8.91215 10.5094L8.00147 11.2032C7.78992 11.3782 7.50021 11.3697 7.29433 11.2138C7.0726 11.0663 6.97607 10.8106 7.06456 10.5581L7.38314 9.44411L6.43773 8.78308C6.216 8.63559 6.13528 8.37145 6.19944 8.11152C6.27214 7.8675 6.49949 7.68397 6.76481 7.68505L7.91374 7.66282L8.24086 6.56476C8.31356 6.32074 8.5409 6.13721 8.80623 6.13829ZM6.28902 0.840906L2.18071 14.4778L2.45709 14.5744C2.62751 14.6258 2.72108 14.8002 2.66125 14.9547C2.6392 15.0278 2.59286 15.0935 2.51364 15.136C2.45026 15.17 2.3699 15.1723 2.28101 15.1588L1.9888 15.0707L1.13164 17.96C1.06446 18.139 1.16655 18.3292 1.34431 18.3562L3.974 19.1494C4.11074 18.8718 4.35338 18.6396 4.63854 18.4865C5.03461 18.2739 5.46821 18.2453 5.87365 18.3543C6.65283 18.5893 7.10866 19.3245 7.02615 20.0833L9.623 20.8533C9.77761 20.9132 9.96769 20.8111 10.0032 20.6492L10.8763 17.7513L10.5841 17.6632C10.4221 17.6277 10.32 17.4375 10.3799 17.2829C10.4313 17.1124 10.6055 17.0189 10.776 17.0703L11.0682 17.1584L14.0755 7.17601L14.7876 4.81219L15.1764 3.52158C15.2278 3.35111 15.1342 3.17678 14.9553 3.10954L6.68509 0.628316C6.51463 0.576901 6.34038 0.670433 6.28902 0.840906ZM6.14739 0.12079C6.36916 0.00175225 6.61763 -0.029578 6.85262 0.0280228L15.1313 2.52505C15.6183 2.67194 15.9076 3.2108 15.7608 3.6978L15.46 4.69626L16.6288 5.04876C16.8236 5.10752 16.9805 5.24785 17.0656 5.40631C17.1676 5.59647 17.1894 5.78897 17.1392 5.99965L11.8791 23.4597C11.8204 23.6545 11.6802 23.8114 11.5059 23.905C11.3316 23.9985 11.1233 24.0287 10.9285 23.9699L2.94205 21.561C2.7631 21.4937 2.59032 21.3619 2.49674 21.1876C2.40317 21.0133 2.39731 20.8122 2.44017 20.6259L2.79963 19.4327L1.16823 18.9407C0.924729 18.8672 0.719106 18.7122 0.600025 18.4904C0.480926 18.2685 0.465383 18.0114 0.547248 17.7838L1.49246 14.6022L5.69611 0.648783C5.76215 0.429605 5.92558 0.239849 6.14739 0.12079Z"
    fill="#0F172A" />
</svg>