<?xml version="1.0" encoding="UTF-8" standalone="no"?>
<svg
   xmlns:dc="http://purl.org/dc/elements/1.1/"
   xmlns:cc="http://creativecommons.org/ns#"
   xmlns:rdf="http://www.w3.org/1999/02/22-rdf-syntax-ns#"
   xmlns:svg="http://www.w3.org/2000/svg"
   xmlns="http://www.w3.org/2000/svg"
   viewBox="115 45 820 700.70135"
   xml:space="preserve"
   id="svg2"
   fill="none"
   version="1.1"><metadata
     id="metadata8"><rdf:RDF><cc:Work
         rdf:about=""><dc:format>image/svg+xml</dc:format><dc:type
           rdf:resource="http://purl.org/dc/dcmitype/StillImage" /></cc:Work></rdf:RDF></metadata><defs
     id="defs6"><clipPath
       id="clipPath18"
       clipPathUnits="userSpaceOnUse"><path
         id="path16"
         d="M 0,595.276 H 841.89 V 0 H 0 Z" /></clipPath></defs><g
     transform="matrix(1.3333333,0,0,-1.3333333,0,793.70133)"
     id="g10"><g
       id="g12"><g
         clip-path="url(#clipPath18)"
         id="g14"><g
           transform="translate(180.4164,470.6486)"
           id="g24"><path
             id="path26"
             style="fill:#F3EA28;fill-opacity:1;fill-rule:nonzero;stroke:none"
             d="m 0,0 v -280.366 c 2.295,0 4.217,0 6.138,0 50.94,0 101.88,0.047 152.819,-0.115 3.156,-0.01 6.681,-1.034 9.403,-2.649 30.879,-18.316 61.633,-36.841 92.429,-55.298 1.436,-0.86 2.944,-1.601 5.147,-2.791 v 60.979 H 436.644 V 0 Z m -29.384,29.176 c 163.798,0.012 327.596,0.025 491.394,0.03 1.106,0 2.211,-0.092 3.609,-0.155 v -338.302 h -170.77 v -83.381 c -2.105,1.141 -3.497,1.83 -4.825,2.626 -43.617,26.159 -87.215,52.351 -130.881,78.427 -2.079,1.242 -4.757,2.089 -7.158,2.093 -60.456,0.104 -120.912,0.07 -181.369,0.059 z" /></g><g
           transform="translate(394.006,363.3718)"
           id="g28"><path
             id="path30"
             style="fill:none;fill-opacity:1;fill-rule:nonzero;stroke:none"
             d="m 0,0 c -4.987,0 -9.976,0.069 -14.961,-0.016 -8.251,-0.139 -14.161,-5.536 -14.398,-13.748 -0.293,-10.125 -0.272,-20.27 -0.011,-30.397 0.201,-7.814 5.562,-13.616 13.252,-13.91 10.596,-0.406 21.232,-0.404 31.829,0.003 7.588,0.292 13.126,6.364 13.272,13.952 0.194,10.131 0.216,20.273 -0.017,30.402 C 28.787,-5.938 22.752,-0.218 14.961,-0.031 9.977,0.089 4.987,-0.008 0,0 m -133.573,-28.987 c 0,-4.513 -0.037,-9.027 0.008,-13.54 0.086,-8.478 6.084,-15.313 14.5,-15.625 10.139,-0.376 20.311,-0.362 30.451,-0.008 8.117,0.283 13.673,5.791 13.951,13.803 0.351,10.141 0.368,20.312 0.018,30.452 -0.295,8.542 -6.209,13.819 -14.801,13.89 -9.51,0.078 -19.021,0.072 -28.531,0.005 -9.092,-0.064 -15.486,-6.434 -15.586,-15.436 -0.05,-4.513 -0.009,-9.027 -0.01,-13.541 M 103.615,0.004 c -4.835,0 -9.671,0 -14.507,0 C 88.786,0.003 88.463,0.002 88.141,-0.01 80.878,-0.272 74.782,-5.109 74.418,-12.362 73.862,-23.444 73.899,-34.59 74.407,-45.676 c 0.314,-6.857 5.868,-12.104 12.686,-12.352 10.779,-0.393 21.594,-0.426 32.371,-0.014 7.388,0.282 13.525,7.025 13.69,14.438 0.215,9.667 0.218,19.346 0.007,29.012 -0.179,8.189 -6.784,14.429 -15.039,14.577 -4.834,0.087 -9.671,0.016 -14.507,0.019 M -213.59,107.277 h 436.644 v -280.24 H 52.347 v -60.98 c -2.204,1.191 -3.712,1.932 -5.148,2.792 -30.795,18.457 -61.549,36.982 -92.428,55.298 -2.723,1.615 -6.247,2.639 -9.403,2.649 -50.94,0.162 -101.88,0.115 -152.82,0.115 -1.921,0 -3.842,0 -6.138,0 z" /></g><g
           transform="translate(497.6212,363.3744)"
           id="g32"><path
             id="path34"
             style="fill:#F3EA28;fill-opacity:1;fill-rule:nonzero;stroke:none"
             d="m 0,0 c 4.836,-0.001 9.673,0.069 14.507,-0.017 8.254,-0.148 14.86,-6.388 15.039,-14.577 0.211,-9.667 0.208,-19.346 -0.007,-29.012 -0.165,-7.414 -6.302,-14.156 -13.69,-14.439 -10.777,-0.411 -21.592,-0.378 -32.371,0.014 -6.818,0.249 -12.372,5.496 -12.686,12.353 -0.508,11.085 -0.545,22.232 0.011,33.313 0.364,7.253 6.459,12.091 13.723,12.353 C -10.317,0.024 -5.158,-0.01 0,0" /></g><g
           transform="translate(260.4338,334.385)"
           id="g36"><path
             id="path38"
             style="fill:#F3EA28;fill-opacity:1;fill-rule:nonzero;stroke:none"
             d="m 0,0 c 0,4.514 -0.041,9.028 0.009,13.541 0.1,9.001 6.495,15.372 15.586,15.436 9.51,0.066 19.022,0.073 28.532,-0.005 8.591,-0.071 14.505,-5.348 14.8,-13.89 0.35,-10.14 0.333,-20.312 -0.018,-30.452 -0.278,-8.012 -5.834,-13.52 -13.951,-13.803 -10.14,-0.354 -20.312,-0.369 -30.45,0.008 -8.417,0.312 -14.415,7.147 -14.5,15.624 C -0.038,-9.027 0,-4.514 0,0" /></g><g
           transform="translate(394.006,363.3676)"
           id="g40"><path
             id="path42"
             style="fill:#F3EA28;fill-opacity:1;fill-rule:nonzero;stroke:none"
             d="m 0,0 c 4.987,-0.004 9.977,0.093 14.961,-0.027 7.791,-0.187 13.826,-5.907 14.005,-13.682 0.233,-10.13 0.211,-20.272 0.017,-30.403 -0.146,-7.588 -5.684,-13.66 -13.272,-13.952 -10.597,-0.407 -21.233,-0.409 -31.829,-0.003 -7.69,0.294 -13.051,6.096 -13.252,13.91 -0.261,10.127 -0.282,20.272 0.011,30.397 0.237,8.212 6.147,13.609 14.398,13.749 C -9.976,0.073 -4.987,0.004 0,0" /></g></g></g></g></svg>